# xmcd CD database file
#
# Track frame offsets:
#	150
#	21590
#	38260
#	67742
#
# Disc length: 1287 seconds
#
# Revision: 0
# Processed by: cddbd v1.5.1PL2 Copyright (c) Steve Scherf et al.
# Submitted via: CDex 1.51
#
DISCID=25050504
DTITLE=LA TERRA MUSIC - MUSIC APERITIF WINE1 グラスを傾けて
DYEAR=1900
DGENRE=Jazz
TTITLE0=エリーゼのために
TTITLE1=コッペリア
TTITLE2=ジョンニ＝スキッキ「私のいとしいお父さん」
TTITLE3=くるみ割り人形 より 「花のワルツ」
EXTD=
EXTT0=
EXTT1=
EXTT2=
EXTT3=
PLAYORDER=
